<svg version="1.2" baseProfile="tiny-ps" xmlns="http://www.w3.org/2000/svg" viewBox="0 0 130 130" width="130" height="130">
	<title>logo</title>
	<style>
		tspan { white-space:pre }
	</style>
	<path id="Tathy" fill="#26a69a" aria-label="Tathy"  d="M22.92 112.81Q21.38 112.81 19.75 110.98Q18.12 109.06 17.73 107.43Q17.64 107.14 17.64 106.86Q17.64 106.57 17.64 106.38Q17.64 105.03 18.21 103.98Q18.88 102.92 19.75 102.73Q20.04 101.19 21.38 100.04Q21.86 99.66 22.63 99.37Q19.65 98.98 17.16 97.06Q14.76 95.05 14.76 91.78Q14.76 90.73 15.04 89.77Q15.14 89.29 15.14 88.71Q15.24 88.14 15.24 87.66Q15.24 85.93 14.56 84.87Q13.99 85.06 13.6 85.06Q12.55 85.06 11.59 84.3Q10.72 83.53 10.34 82.47Q9.96 81.42 9.96 80.46Q9.96 79.88 10.05 79.4Q10.15 78.92 10.15 78.54Q10.15 77.48 9.67 76.33Q9.19 75.18 7.84 75.37Q7.94 75.18 8.13 74.79Q8.42 74.41 9.57 74.41Q11.3 74.41 13.32 76.04Q15.33 77.58 16 79.21Q16.29 79.78 16.39 80.36Q16.48 80.94 16.48 81.42Q16.48 83.53 15.24 84.49Q16.1 85.93 16.1 87.37Q17.35 85.74 19.27 84.78Q21.28 83.82 23.11 83.82Q24.16 82.57 25.7 82.57Q27.43 82.57 28.48 84.2Q29.25 84.39 29.73 84.39Q30.4 84.39 30.88 84.2Q31.46 83.91 31.56 83.53Q31.75 82.86 32.13 82.86Q32.61 82.86 32.71 83.24Q32.9 83.91 32.52 84.97Q32.23 85.93 30.5 86.12Q30.02 86.12 29.06 85.74Q29.16 86.12 29.16 86.5Q29.16 86.79 29.16 87.27Q29.16 87.56 29.06 87.94Q29.06 88.23 29.06 88.62L29.06 88.9Q29.06 89.77 29.54 90.44Q30.12 91.02 30.69 90.63Q31.08 90.44 31.27 90.44Q31.56 90.44 31.36 90.92Q30.5 92.17 29.16 92.17Q27.62 92.17 26.76 90.82Q25.89 89.48 25.8 88.52Q25.6 86.7 24.74 85.93Q23.88 85.06 23.11 84.97Q23.01 84.97 22.92 84.97Q22.92 84.87 22.82 84.87Q21 85.26 19.17 86.7Q17.35 88.14 16.87 90.06Q16.77 90.44 16.68 90.92Q16.68 91.3 16.68 91.78Q16.68 94.76 18.88 96.39Q21.19 98.02 24.16 98.02Q28.39 98.02 33.19 95.05Q37.99 91.98 42.88 87.08Q47.88 82.09 52.68 76.04Q57.48 69.99 61.8 63.85Q66.12 57.7 69.57 52.52Q71.2 50.02 73.41 47.24Q75.62 44.36 78.12 41.48Q73.03 39.75 67.75 38.31Q62.47 36.78 57.19 36.01Q57.28 39.75 56.04 43.59Q54.88 47.34 52.68 50.89Q53.73 50.31 54.69 49.93Q55.75 49.45 57 49.45Q57.28 48.2 58.34 47.72Q59.4 47.24 60.55 47.24Q61.89 47.24 62.85 47.72Q63.72 48.1 65.35 49.26Q66.98 50.41 67.17 52.14Q66.88 51.94 66.02 51.66Q65.16 51.27 64 51.27Q62.47 51.27 60.84 52.33Q60.36 52.71 59.59 52.71Q58.63 52.71 57.86 51.94Q57.19 51.08 57 50.31Q54.5 50.5 52 52.52Q51.62 52.71 51.52 52.71Q47.68 58.57 42.21 63.18Q36.74 67.78 31.56 69.9Q28.58 71.14 25.89 71.72Q23.2 72.2 20.9 72.2Q14.47 72.2 11.01 68.55Q7.56 64.9 7.56 59.62Q7.56 55.5 9.76 50.98Q12.07 46.38 16.87 42.25Q21.19 38.6 26.56 36.3Q31.94 33.9 37.51 32.84Q43.17 31.69 48.07 32.07Q51.81 32.26 55.36 32.94Q54.79 29.77 52.87 26.7Q50.08 22.57 44.8 20.55Q43.46 20.46 42.6 21.22Q41.73 21.99 41.44 22.66Q40.96 23.62 40.96 24.49Q40.96 25.64 41.73 25.93Q42.21 26.02 42.21 26.31Q42.21 26.7 41.25 26.7Q40.48 26.7 39.52 26.22Q38.56 25.64 38.56 24.39Q38.56 22.76 40.1 21.51Q41.73 20.26 43.65 20.17Q43.75 20.17 43.75 20.17Q39.04 18.63 32.42 19.02Q31.65 19.11 30.88 19.21Q30.21 19.3 29.54 19.5L28.87 19.59Q28.68 19.59 28.48 19.69Q28.29 19.78 28.1 19.88Q27.14 20.17 26.08 21.03Q25.22 21.9 25.22 23.34Q25.22 24.97 26.56 25.26Q27.04 25.35 27.04 25.74Q27.04 26.02 26.56 26.12Q26.37 26.22 25.99 26.22Q25.12 26.22 24.55 25.64Q24.16 25.26 23.97 24.87Q23.78 24.39 23.68 24.01L23.4 24.49Q22.92 25.26 21.67 26.6Q20.42 27.85 18.79 28.81Q17.16 29.77 15.52 29.77Q13.41 29.77 12.45 27.94Q12.36 27.85 12.36 27.66Q12.36 27.46 12.64 27.46Q12.93 27.46 13.22 27.56Q13.51 27.56 13.89 27.56Q14.95 27.56 15.91 26.6Q16.96 25.64 17.35 24.58Q18.12 22.38 19.36 20.36Q20.61 18.25 22.15 17.48Q23.49 16.81 24.84 16.81Q27.04 16.81 28.48 18.25Q29.35 17.96 30.31 17.86Q31.27 17.67 32.23 17.58Q33 17.48 33.67 17.48Q34.34 17.48 35.01 17.48Q41.54 17.48 46.24 19.59Q50.95 21.61 53.54 25.26Q54.98 27.08 55.75 29.1Q56.61 31.11 57 33.22Q62.66 34.38 68.23 36.2Q73.89 38.02 79.46 40.04Q81.67 37.64 83.97 35.53Q86.37 33.32 88.77 31.5Q91.46 29.48 94.15 28.71Q96.84 27.94 99.04 27.94Q101.54 27.94 103.08 28.62Q104.71 29.29 105 30.15L104.52 30.44Q103.84 29.67 102.6 29.19Q101.44 28.71 99.81 28.71Q97.89 28.71 95.3 29.67Q92.71 30.54 89.64 32.84Q88 34.09 86.08 36.2Q84.16 38.31 82.05 41.1Q86.47 42.73 90.6 44.36Q94.82 45.9 98.76 47.24Q102.5 48.49 105.38 49.06Q108.36 49.54 110.47 49.54Q114.4 49.54 116.52 48.39Q118.63 47.14 119.49 45.7Q120.45 44.17 120.74 43.3L122.08 43.69Q121.8 44.94 120.64 46.66Q119.59 48.3 117.19 49.64Q114.79 50.89 110.56 50.89Q108.16 50.89 105.19 50.41Q102.21 49.83 98.37 48.58Q94.24 47.24 89.92 45.61Q85.6 43.98 81.09 42.44Q77.92 46.86 74.66 52.04Q71.4 57.13 68.52 61.93Q65.64 66.63 63.43 70.09Q58.15 78.54 51.91 85.26Q45.76 91.98 38.95 95.82Q32.13 99.56 24.74 99.46Q24.07 99.56 23.3 99.85Q22.63 100.14 22.05 100.62Q20.71 101.67 20.42 102.73Q21.48 102.73 22.34 103.59Q23.3 104.46 23.3 105.51L23.3 106.09Q23.3 107.05 23.11 107.72Q23.01 108.3 22.82 108.87Q22.63 109.45 22.63 110.02Q22.63 110.79 22.92 111.46Q23.3 112.14 24.07 112.23Q23.97 112.33 23.78 112.62Q23.59 112.81 22.92 112.81ZM22.05 70.57Q23.88 70.57 25.99 70.09Q28.1 69.61 30.5 68.65Q31.08 68.46 31.75 68.26Q32.42 68.07 32.9 67.59L33 67.5Q34.63 66.44 36.36 64.42Q38.08 62.31 38.47 60.49Q36.84 60.58 35.49 59.43Q34.24 58.18 33.96 56.65Q33.86 56.07 33.76 55.59Q33.76 55.11 33.76 54.63Q33.76 53.77 33.86 53.1Q34.05 52.42 34.24 51.75Q34.34 51.46 34.34 50.6Q34.34 49.35 33.76 48.2Q33.19 46.95 31.84 46.95Q31.94 46.76 32.32 46.38Q32.71 45.9 33.76 45.9Q35.3 45.9 36.93 47.05Q38.66 48.2 40 49.93Q41.35 51.56 41.83 53.19Q42.12 54.34 42.12 55.4Q42.12 57.13 41.35 58.47Q40.58 59.82 39.43 60.3L39.33 60.3Q39.43 61.26 38.66 62.7Q37.89 64.04 36.93 65.19Q41.73 61.93 46.05 57.22Q50.37 52.42 53.06 46.95Q55.84 41.38 55.65 35.82Q53.64 35.62 51.62 35.53Q49.7 35.34 47.68 35.34Q43.17 35.43 37.99 36.68Q32.9 37.93 28 40.42Q23.2 42.82 19.56 46.38Q16.1 49.74 14.37 53.67Q12.64 57.51 12.64 60.97Q12.64 65 14.95 67.78Q17.35 70.57 22.05 70.57Z" />
	<path id="Tathy" fill="#cd5c5c" aria-label="Tathy"  d="M67.19 89.24Q66.07 89.24 65.47 88.4Q64.87 87.52 64.87 86.16Q64.87 84.68 65.67 82.72Q66.11 81.64 66.99 80.52Q67.87 79.36 69.03 78.4Q70.19 77.4 71.51 76.8Q72.87 76.16 74.27 76.16Q75.35 76.16 75.75 76.72Q76.15 77.28 76.15 78.08Q76.15 78.84 75.91 79.64L78.15 76.24Q78.43 76.04 79.39 76.04Q80.11 76.04 80.75 76.2Q81.43 76.36 81.15 76.68Q80.83 77.08 80.03 77.92Q79.27 78.72 78.35 79.84Q77.47 80.96 76.67 82.2Q76.27 82.88 75.47 84.2Q74.71 85.52 74.27 86.72Q74.03 87.44 74.03 87.88Q74.03 88.72 74.75 88.72Q75.15 88.72 75.83 88.44Q76.51 88.12 77.15 87.6Q78.43 86.56 79.39 85.12Q80.35 83.64 81.11 82.52Q81.15 82.48 81.19 82.44Q81.27 82.4 81.43 82.4Q81.59 82.4 81.67 82.56Q81.75 82.68 81.59 82.88Q80.47 84.56 79.39 86.04Q78.31 87.48 77.19 88.36Q76.07 89.24 74.75 89.24Q73.71 89.24 73.07 88.64Q72.47 88 72.47 86.92Q72.47 86.44 72.55 85.92Q72.67 85.4 72.83 84.96Q72.19 85.8 71.23 86.8Q70.31 87.8 69.27 88.52Q68.23 89.24 67.19 89.24ZM67.55 88.48Q68.35 88.48 69.23 87.84Q70.15 87.2 71.07 86.2Q71.99 85.16 72.75 84Q73.39 83.04 73.99 81.96Q74.63 80.88 75.03 79.84Q75.47 78.8 75.47 77.96Q75.47 76.68 74.55 76.68Q73.91 76.68 73.07 77.24Q72.23 77.8 71.35 78.68Q70.51 79.56 69.75 80.6Q69.03 81.6 68.59 82.56Q68.47 82.8 67.99 83.72Q67.55 84.64 67.11 85.72Q66.71 86.8 66.71 87.6Q66.71 88.48 67.55 88.48ZM82.51 89.28Q81.35 89.28 80.43 88.64Q79.55 87.96 79.55 86.68Q79.55 86 79.63 85.48Q79.71 84.92 79.99 84.32Q80.31 83.68 80.91 82.72Q81.55 81.76 82.63 80.28L85.55 76.16L83.39 76.16L83.71 75.56L85.99 75.56L89.19 70.96Q90.07 70.32 91.31 70.32Q91.91 70.32 92.51 70.52L88.71 75.52L91.55 75.52L91.23 76.12L88.27 76.12L84.95 80.76Q84.71 81.08 84.15 81.88Q83.59 82.64 82.95 83.64Q82.35 84.64 81.91 85.64Q81.47 86.6 81.47 87.4Q81.47 88.72 82.75 88.72Q83.43 88.72 84.27 88.32Q86.11 87.52 87.39 86.04Q88.71 84.52 89.91 82.64Q90.03 82.48 90.27 82.48Q90.39 82.48 90.47 82.6Q90.55 82.72 90.47 82.88Q89.75 84 88.87 85.2Q87.99 86.4 86.87 87.4Q85.79 88.4 84.43 88.92Q83.55 89.28 82.51 89.28ZM95.95 89.4Q93.75 89.4 93.75 87.2Q93.75 86.4 94.35 85.28Q94.99 84.16 95.87 83Q96.75 81.8 97.55 80.84Q98.35 79.88 98.75 79.44Q99.95 78 99.95 77.4Q99.95 76.96 99.43 76.96Q99.03 76.96 98.67 77.12Q97.19 77.64 95.67 79.04Q94.15 80.44 92.75 82.28Q91.39 84.08 90.31 85.88Q89.23 87.68 88.59 89Q88.55 89.12 88.15 89.2Q87.79 89.24 87.35 89.24Q86.95 89.24 86.63 89.2Q86.35 89.12 86.35 89Q86.35 89 87.07 87.68Q87.79 86.36 89.03 84.2Q90.27 82 91.83 79.36Q93.43 76.72 95.15 74.08Q96.55 71.92 98.03 69.76Q99.51 67.6 101.27 65.72Q103.07 63.8 105.35 62.52Q106.23 62 106.91 61.84Q107.63 61.64 108.15 61.64Q108.67 61.64 109.07 61.76Q109.99 62 109.99 63.16Q109.99 64.04 109.51 65.28Q109.03 66.48 108.27 67.68Q107.51 68.84 106.71 69.76Q104.55 72.12 102.47 73.44Q100.39 74.72 98.71 75.28Q97.07 75.8 96.19 76Q95.87 76.44 95.27 77.36Q94.67 78.24 93.95 79.28Q93.55 79.84 93.55 79.96Q93.55 80 93.71 79.92Q93.87 79.8 94.07 79.6Q95.11 78.56 96.23 77.68Q97.39 76.8 98.55 76.36Q99.39 76.04 100.23 76.04Q101.03 76.04 101.63 76.36Q102.27 76.64 102.27 77.32Q102.27 77.92 101.67 78.76Q101.15 79.44 100.19 80.72Q99.27 82 98.27 83.44Q97.31 84.88 96.63 86.16Q95.95 87.4 95.95 88.04Q95.95 88.64 96.51 88.64Q97.31 88.64 98.27 88Q99.27 87.32 100.27 86.36Q101.27 85.36 102.07 84.32Q102.91 83.28 103.39 82.52Q103.55 82.44 103.67 82.44Q104.07 82.44 103.87 82.88Q102.67 84.76 101.27 86.24Q99.87 87.72 98.47 88.56Q97.11 89.4 95.95 89.4ZM96.71 75.24Q97.47 75.08 98.83 74.48Q100.23 73.88 101.95 72.68Q103.71 71.48 105.51 69.48Q106.23 68.68 107.15 67.48Q108.11 66.28 108.59 65.28Q108.91 64.56 109.03 64.08Q109.19 63.56 109.19 63.24Q109.19 62.52 108.55 62.52Q107.91 62.52 106.95 63.12Q105.99 63.68 105.23 64.36Q103.99 65.48 102.63 67.12Q101.27 68.72 100.03 70.4Q98.83 72.08 97.91 73.4Q97.03 74.72 96.71 75.24ZM96.95 104.56Q95.83 104.56 95.11 104Q94.43 103.4 94.43 102.36Q94.43 101.88 94.63 101.32Q94.83 100.72 95.27 100.12Q96.07 99 97.59 97.64Q99.15 96.24 100.83 95Q102.67 93.6 104.35 92.56Q106.07 91.48 107.23 90.88Q108.43 90.24 108.63 90.16Q108.67 90.12 109.11 88.92Q109.59 87.68 110.35 85.84Q111.11 84 112.03 82.16Q111.59 82.8 111.03 83.6Q110.51 84.4 109.99 85.08Q109.51 85.76 109.19 86.12Q108.63 86.8 107.87 87.56Q107.11 88.32 106.23 88.84Q105.39 89.36 104.51 89.36Q103.55 89.36 103.03 88.8Q102.51 88.24 102.51 87.24Q102.51 86.12 102.95 84.92Q103.43 83.72 103.79 83.04Q103.75 83.08 103.67 83.08Q103.51 83.08 103.39 82.92Q103.27 82.76 103.35 82.64Q103.67 82.16 104.31 81.36Q104.95 80.52 105.67 79.56Q106.39 78.6 107.03 77.72Q107.67 76.84 108.03 76.32Q108.35 76.24 108.87 76.08Q109.39 75.92 109.91 75.92Q110.47 75.92 110.75 76.24Q110.31 76.92 109.51 78.04Q108.71 79.16 107.75 80.48Q106.83 81.8 105.99 83.2Q105.15 84.6 104.59 85.88Q104.07 87.12 104.07 88.04Q104.07 88.72 104.79 88.72Q105.63 88.68 106.75 87.68Q107.91 86.64 109.15 85.08Q110.39 83.52 111.47 81.88Q112.87 79.8 113.87 78.6Q114.87 77.4 115.27 76.96Q115.67 76.52 116.03 76.16Q116.39 75.76 116.71 75.48Q117.27 75.04 117.83 75.04Q118.27 75.04 118.55 75.28Q118.87 75.48 118.87 75.76Q118.87 76.04 118.47 76.28Q117.23 76.92 116.15 77.72Q115.07 78.48 114.23 79.6Q113.35 80.76 112.71 82.6Q112.11 84.4 111.67 86.2Q111.27 88 110.91 89.2Q111.55 88.8 112.67 87.84Q113.83 86.84 115.07 85.48Q116.31 84.08 117.19 82.56Q117.39 82.36 117.51 82.36Q117.63 82.36 117.71 82.48Q117.83 82.56 117.79 82.68Q116.67 84.64 115.23 86.24Q113.79 87.84 112.55 88.84Q111.31 89.84 110.75 90.08Q109.91 92.48 108.51 95.2Q107.15 97.88 104.99 100.28Q104.07 101.32 102.71 102.32Q101.35 103.28 99.83 103.92Q98.31 104.56 96.95 104.56ZM96.71 103.92Q97.63 103.92 98.87 103Q100.15 102.08 101.51 100.6Q102.91 99.12 104.23 97.4Q105.55 95.68 106.63 94.04Q107.71 92.4 108.35 91.16Q107.79 91.44 106.63 92.16Q105.47 92.84 103.99 93.84Q102.51 94.8 100.99 95.96Q99.51 97.12 98.19 98.32Q96.91 99.48 96.11 100.56Q95.35 101.64 95.35 102.52Q95.35 103.16 95.71 103.56Q96.07 103.92 96.71 103.92Z" />
</svg>