<svg version="1.2" baseProfile="tiny-ps" xmlns="http://www.w3.org/2000/svg" viewBox="0 0 208 128" width="208" height="128">
	<title>logo-long</title>
	<style>
		tspan { white-space:pre }
	</style>
	<g id="Layer">
		<path id="Tathy" fill="#26a69a" aria-label="Tathy"  d="M24.05 104.81Q22.51 104.81 20.88 102.98Q19.25 101.06 18.86 99.43Q18.77 99.14 18.77 98.86Q18.77 98.57 18.77 98.38Q18.77 97.03 19.34 95.98Q20.02 94.92 20.88 94.73Q21.17 93.19 22.51 92.04Q22.99 91.66 23.76 91.37Q20.78 90.98 18.29 89.06Q15.89 87.05 15.89 83.78Q15.89 82.73 16.18 81.77Q16.27 81.29 16.27 80.71Q16.37 80.14 16.37 79.66Q16.37 77.93 15.7 76.87Q15.12 77.06 14.74 77.06Q13.68 77.06 12.72 76.3Q11.86 75.53 11.47 74.47Q11.09 73.42 11.09 72.46Q11.09 71.88 11.18 71.4Q11.28 70.92 11.28 70.54Q11.28 69.48 10.8 68.33Q10.32 67.18 8.98 67.37Q9.07 67.18 9.26 66.79Q9.55 66.41 10.7 66.41Q12.43 66.41 14.45 68.04Q16.46 69.58 17.14 71.21Q17.42 71.78 17.52 72.36Q17.62 72.94 17.62 73.42Q17.62 75.53 16.37 76.49Q17.23 77.93 17.23 79.37Q18.48 77.74 20.4 76.78Q22.42 75.82 24.24 75.82Q25.3 74.57 26.83 74.57Q28.56 74.57 29.62 76.2Q30.38 76.39 30.86 76.39Q31.54 76.39 32.02 76.2Q32.59 75.91 32.69 75.53Q32.88 74.86 33.26 74.86Q33.74 74.86 33.84 75.24Q34.03 75.91 33.65 76.97Q33.36 77.93 31.63 78.12Q31.15 78.12 30.19 77.74Q30.29 78.12 30.29 78.5Q30.29 78.79 30.29 79.27Q30.29 79.56 30.19 79.94Q30.19 80.23 30.19 80.62L30.19 80.9Q30.19 81.77 30.67 82.44Q31.25 83.02 31.82 82.63Q32.21 82.44 32.4 82.44Q32.69 82.44 32.5 82.92Q31.63 84.17 30.29 84.17Q28.75 84.17 27.89 82.82Q27.02 81.48 26.93 80.52Q26.74 78.7 25.87 77.93Q25.01 77.06 24.24 76.97Q24.14 76.97 24.05 76.97Q24.05 76.87 23.95 76.87Q22.13 77.26 20.3 78.7Q18.48 80.14 18 82.06Q17.9 82.44 17.81 82.92Q17.81 83.3 17.81 83.78Q17.81 86.76 20.02 88.39Q22.32 90.02 25.3 90.02Q29.52 90.02 34.32 87.05Q39.12 83.98 44.02 79.08Q49.01 74.09 53.81 68.04Q58.61 61.99 62.93 55.85Q67.25 49.7 70.7 44.52Q72.34 42.02 74.54 39.24Q76.75 36.36 79.25 33.48Q74.16 31.75 68.88 30.31Q63.6 28.78 58.32 28.01Q58.42 31.75 57.17 35.59Q56.02 39.34 53.81 42.89Q54.86 42.31 55.82 41.93Q56.88 41.45 58.13 41.45Q58.42 40.2 59.47 39.72Q60.53 39.24 61.68 39.24Q63.02 39.24 63.98 39.72Q64.85 40.1 66.48 41.26Q68.11 42.41 68.3 44.14Q68.02 43.94 67.15 43.66Q66.29 43.27 65.14 43.27Q63.6 43.27 61.97 44.33Q61.49 44.71 60.72 44.71Q59.76 44.71 58.99 43.94Q58.32 43.08 58.13 42.31Q55.63 42.5 53.14 44.52Q52.75 44.71 52.66 44.71Q48.82 50.57 43.34 55.18Q37.87 59.78 32.69 61.9Q29.71 63.14 27.02 63.72Q24.34 64.2 22.03 64.2Q15.6 64.2 12.14 60.55Q8.69 56.9 8.69 51.62Q8.69 47.5 10.9 42.98Q13.2 38.38 18 34.25Q22.32 30.6 27.7 28.3Q33.07 25.9 38.64 24.84Q44.3 23.69 49.2 24.07Q52.94 24.26 56.5 24.94Q55.92 21.77 54 18.7Q51.22 14.57 45.94 12.55Q44.59 12.46 43.73 13.22Q42.86 13.99 42.58 14.66Q42.1 15.62 42.1 16.49Q42.1 17.64 42.86 17.93Q43.34 18.02 43.34 18.31Q43.34 18.7 42.38 18.7Q41.62 18.7 40.66 18.22Q39.7 17.64 39.7 16.39Q39.7 14.76 41.23 13.51Q42.86 12.26 44.78 12.17Q44.88 12.17 44.88 12.17Q40.18 10.63 33.55 11.02Q32.78 11.11 32.02 11.21Q31.34 11.3 30.67 11.5L30 11.59Q29.81 11.59 29.62 11.69Q29.42 11.78 29.23 11.88Q28.27 12.17 27.22 13.03Q26.35 13.9 26.35 15.34Q26.35 16.97 27.7 17.26Q28.18 17.35 28.18 17.74Q28.18 18.02 27.7 18.12Q27.5 18.22 27.12 18.22Q26.26 18.22 25.68 17.64Q25.3 17.26 25.1 16.87Q24.91 16.39 24.82 16.01L24.53 16.49Q24.05 17.26 22.8 18.6Q21.55 19.85 19.92 20.81Q18.29 21.77 16.66 21.77Q14.54 21.77 13.58 19.94Q13.49 19.85 13.49 19.66Q13.49 19.46 13.78 19.46Q14.06 19.46 14.35 19.56Q14.64 19.56 15.02 19.56Q16.08 19.56 17.04 18.6Q18.1 17.64 18.48 16.58Q19.25 14.38 20.5 12.36Q21.74 10.25 23.28 9.48Q24.62 8.81 25.97 8.81Q28.18 8.81 29.62 10.25Q30.48 9.96 31.44 9.86Q32.4 9.67 33.36 9.58Q34.13 9.48 34.8 9.48Q35.47 9.48 36.14 9.48Q42.67 9.48 47.38 11.59Q52.08 13.61 54.67 17.26Q56.11 19.08 56.88 21.1Q57.74 23.11 58.13 25.22Q63.79 26.38 69.36 28.2Q75.02 30.02 80.59 32.04Q82.8 29.64 85.1 27.53Q87.5 25.32 89.9 23.5Q92.59 21.48 95.28 20.71Q97.97 19.94 100.18 19.94Q102.67 19.94 104.21 20.62Q105.84 21.29 106.13 22.15L105.65 22.44Q104.98 21.67 103.73 21.19Q102.58 20.71 100.94 20.71Q99.02 20.71 96.43 21.67Q93.84 22.54 90.77 24.84Q89.14 26.09 87.22 28.2Q85.3 30.31 83.18 33.1Q87.6 34.73 91.73 36.36Q95.95 37.9 99.89 39.24Q103.63 40.49 106.51 41.06Q109.49 41.54 111.6 41.54Q115.54 41.54 117.65 40.39Q119.76 39.14 120.62 37.7Q121.58 36.17 121.87 35.3L123.22 35.69Q122.93 36.94 121.78 38.66Q120.72 40.3 118.32 41.64Q115.92 42.89 111.7 42.89Q109.3 42.89 106.32 42.41Q103.34 41.83 99.5 40.58Q95.38 39.24 91.06 37.61Q86.74 35.98 82.22 34.44Q79.06 38.86 75.79 44.04Q72.53 49.13 69.65 53.93Q66.77 58.63 64.56 62.09Q59.28 70.54 53.04 77.26Q46.9 83.98 40.08 87.82Q33.26 91.56 25.87 91.46Q25.2 91.56 24.43 91.85Q23.76 92.14 23.18 92.62Q21.84 93.67 21.55 94.73Q22.61 94.73 23.47 95.59Q24.43 96.46 24.43 97.51L24.43 98.09Q24.43 99.05 24.24 99.72Q24.14 100.3 23.95 100.87Q23.76 101.45 23.76 102.02Q23.76 102.79 24.05 103.46Q24.43 104.14 25.2 104.23Q25.1 104.33 24.91 104.62Q24.72 104.81 24.05 104.81ZM23.18 62.57Q25.01 62.57 27.12 62.09Q29.23 61.61 31.63 60.65Q32.21 60.46 32.88 60.26Q33.55 60.07 34.03 59.59L34.13 59.5Q35.76 58.44 37.49 56.42Q39.22 54.31 39.6 52.49Q37.97 52.58 36.62 51.43Q35.38 50.18 35.09 48.65Q34.99 48.07 34.9 47.59Q34.9 47.11 34.9 46.63Q34.9 45.77 34.99 45.1Q35.18 44.42 35.38 43.75Q35.47 43.46 35.47 42.6Q35.47 41.35 34.9 40.2Q34.32 38.95 32.98 38.95Q33.07 38.76 33.46 38.38Q33.84 37.9 34.9 37.9Q36.43 37.9 38.06 39.05Q39.79 40.2 41.14 41.93Q42.48 43.56 42.96 45.19Q43.25 46.34 43.25 47.4Q43.25 49.13 42.48 50.47Q41.71 51.82 40.56 52.3L40.46 52.3Q40.56 53.26 39.79 54.7Q39.02 56.04 38.06 57.19Q42.86 53.93 47.18 49.22Q51.5 44.42 54.19 38.95Q56.98 33.38 56.78 27.82Q54.77 27.62 52.75 27.53Q50.83 27.34 48.82 27.34Q44.3 27.43 39.12 28.68Q34.03 29.93 29.14 32.42Q24.34 34.82 20.69 38.38Q17.23 41.74 15.5 45.67Q13.78 49.51 13.78 52.97Q13.78 57 16.08 59.78Q18.48 62.57 23.18 62.57Z" />
		<path id="Tathy" fill="#cd5c5c" aria-label="Tathy"  d="M75.6 81.58Q72.91 81.58 71.47 79.56Q70.03 77.45 70.03 74.18Q70.03 70.63 71.95 65.93Q73.01 63.34 75.12 60.65Q77.23 57.86 80.02 55.56Q82.8 53.16 85.97 51.72Q89.23 50.18 92.59 50.18Q95.18 50.18 96.14 51.53Q97.1 52.87 97.1 54.79Q97.1 56.62 96.53 58.54L101.9 50.38Q102.58 49.9 104.88 49.9Q106.61 49.9 108.14 50.28Q109.78 50.66 109.1 51.43Q108.34 52.39 106.42 54.41Q104.59 56.33 102.38 59.02Q100.27 61.7 98.35 64.68Q97.39 66.31 95.47 69.48Q93.65 72.65 92.59 75.53Q92.02 77.26 92.02 78.31Q92.02 80.33 93.74 80.33Q94.7 80.33 96.34 79.66Q97.97 78.89 99.5 77.64Q102.58 75.14 104.88 71.69Q107.18 68.14 109.01 65.45Q109.1 65.35 109.2 65.26Q109.39 65.16 109.78 65.16Q110.16 65.16 110.35 65.54Q110.54 65.83 110.16 66.31Q107.47 70.34 104.88 73.9Q102.29 77.35 99.6 79.46Q96.91 81.58 93.74 81.58Q91.25 81.58 89.71 80.14Q88.27 78.6 88.27 76.01Q88.27 74.86 88.46 73.61Q88.75 72.36 89.14 71.3Q87.6 73.32 85.3 75.72Q83.09 78.12 80.59 79.85Q78.1 81.58 75.6 81.58ZM76.46 79.75Q78.38 79.75 80.5 78.22Q82.7 76.68 84.91 74.28Q87.12 71.78 88.94 69Q90.48 66.7 91.92 64.1Q93.46 61.51 94.42 59.02Q95.47 56.52 95.47 54.5Q95.47 51.43 93.26 51.43Q91.73 51.43 89.71 52.78Q87.7 54.12 85.58 56.23Q83.57 58.34 81.74 60.84Q80.02 63.24 78.96 65.54Q78.67 66.12 77.52 68.33Q76.46 70.54 75.41 73.13Q74.45 75.72 74.45 77.64Q74.45 79.75 76.46 79.75ZM112.37 81.67Q109.58 81.67 107.38 80.14Q105.26 78.5 105.26 75.43Q105.26 73.8 105.46 72.55Q105.65 71.21 106.32 69.77Q107.09 68.23 108.53 65.93Q110.06 63.62 112.66 60.07L119.66 50.18L114.48 50.18L115.25 48.74L120.72 48.74L128.4 37.7Q130.51 36.17 133.49 36.17Q134.93 36.17 136.37 36.65L127.25 48.65L134.06 48.65L133.3 50.09L126.19 50.09L118.22 61.22Q117.65 61.99 116.3 63.91Q114.96 65.74 113.42 68.14Q111.98 70.54 110.93 72.94Q109.87 75.24 109.87 77.16Q109.87 80.33 112.94 80.33Q114.58 80.33 116.59 79.37Q121.01 77.45 124.08 73.9Q127.25 70.25 130.13 65.74Q130.42 65.35 130.99 65.35Q131.28 65.35 131.47 65.64Q131.66 65.93 131.47 66.31Q129.74 69 127.63 71.88Q125.52 74.76 122.83 77.16Q120.24 79.56 116.98 80.81Q114.86 81.67 112.37 81.67ZM144.62 81.96Q139.34 81.96 139.34 76.68Q139.34 74.76 140.78 72.07Q142.32 69.38 144.43 66.6Q146.54 63.72 148.46 61.42Q150.38 59.11 151.34 58.06Q154.22 54.6 154.22 53.16Q154.22 52.1 152.98 52.1Q152.02 52.1 151.15 52.49Q147.6 53.74 143.95 57.1Q140.3 60.46 136.94 64.87Q133.68 69.19 131.09 73.51Q128.5 77.83 126.96 81Q126.86 81.29 125.9 81.48Q125.04 81.58 123.98 81.58Q123.02 81.58 122.26 81.48Q121.58 81.29 121.58 81Q121.58 81 123.31 77.83Q125.04 74.66 128.02 69.48Q130.99 64.2 134.74 57.86Q138.58 51.53 142.7 45.19Q146.06 40.01 149.62 34.82Q153.17 29.64 157.39 25.13Q161.71 20.52 167.18 17.45Q169.3 16.2 170.93 15.82Q172.66 15.34 173.9 15.34Q175.15 15.34 176.11 15.62Q178.32 16.2 178.32 18.98Q178.32 21.1 177.17 24.07Q176.02 26.95 174.19 29.83Q172.37 32.62 170.45 34.82Q165.26 40.49 160.27 43.66Q155.28 46.73 151.25 48.07Q147.31 49.32 145.2 49.8Q144.43 50.86 142.99 53.06Q141.55 55.18 139.82 57.67Q138.86 59.02 138.86 59.3Q138.86 59.4 139.25 59.21Q139.63 58.92 140.11 58.44Q142.61 55.94 145.3 53.83Q148.08 51.72 150.86 50.66Q152.88 49.9 154.9 49.9Q156.82 49.9 158.26 50.66Q159.79 51.34 159.79 52.97Q159.79 54.41 158.35 56.42Q157.1 58.06 154.8 61.13Q152.59 64.2 150.19 67.66Q147.89 71.11 146.26 74.18Q144.62 77.16 144.62 78.7Q144.62 80.14 145.97 80.14Q147.89 80.14 150.19 78.6Q152.59 76.97 154.99 74.66Q157.39 72.26 159.31 69.77Q161.33 67.27 162.48 65.45Q162.86 65.26 163.15 65.26Q164.11 65.26 163.63 66.31Q160.75 70.82 157.39 74.38Q154.03 77.93 150.67 79.94Q147.41 81.96 144.62 81.96ZM146.45 47.98Q148.27 47.59 151.54 46.15Q154.9 44.71 159.02 41.83Q163.25 38.95 167.57 34.15Q169.3 32.23 171.5 29.35Q173.81 26.47 174.96 24.07Q175.73 22.34 176.02 21.19Q176.4 19.94 176.4 19.18Q176.4 17.45 174.86 17.45Q173.33 17.45 171.02 18.89Q168.72 20.23 166.9 21.86Q163.92 24.55 160.66 28.49Q157.39 32.33 154.42 36.36Q151.54 40.39 149.33 43.56Q147.22 46.73 146.45 47.98ZM147.02 118.34Q144.34 118.34 142.61 117Q140.98 115.56 140.98 113.06Q140.98 111.91 141.46 110.57Q141.94 109.13 142.99 107.69Q144.91 105 148.56 101.74Q152.3 98.38 156.34 95.4Q160.75 92.04 164.78 89.54Q168.91 86.95 171.7 85.51Q174.58 83.98 175.06 83.78Q175.15 83.69 176.21 80.81Q177.36 77.83 179.18 73.42Q181.01 69 183.22 64.58Q182.16 66.12 180.82 68.04Q179.57 69.96 178.32 71.59Q177.17 73.22 176.4 74.09Q175.06 75.72 173.23 77.54Q171.41 79.37 169.3 80.62Q167.28 81.86 165.17 81.86Q162.86 81.86 161.62 80.52Q160.37 79.18 160.37 76.78Q160.37 74.09 161.42 71.21Q162.58 68.33 163.44 66.7Q163.34 66.79 163.15 66.79Q162.77 66.79 162.48 66.41Q162.19 66.02 162.38 65.74Q163.15 64.58 164.69 62.66Q166.22 60.65 167.95 58.34Q169.68 56.04 171.22 53.93Q172.75 51.82 173.62 50.57Q174.38 50.38 175.63 49.99Q176.88 49.61 178.13 49.61Q179.47 49.61 180.14 50.38Q179.09 52.01 177.17 54.7Q175.25 57.38 172.94 60.55Q170.74 63.72 168.72 67.08Q166.7 70.44 165.36 73.51Q164.11 76.49 164.11 78.7Q164.11 80.33 165.84 80.33Q167.86 80.23 170.54 77.83Q173.33 75.34 176.3 71.59Q179.28 67.85 181.87 63.91Q185.23 58.92 187.63 56.04Q190.03 53.16 190.99 52.1Q191.95 51.05 192.82 50.18Q193.68 49.22 194.45 48.55Q195.79 47.5 197.14 47.5Q198.19 47.5 198.86 48.07Q199.63 48.55 199.63 49.22Q199.63 49.9 198.67 50.47Q195.7 52.01 193.1 53.93Q190.51 55.75 188.5 58.44Q186.38 61.22 184.85 65.64Q183.41 69.96 182.35 74.28Q181.39 78.6 180.53 81.48Q182.06 80.52 184.75 78.22Q187.54 75.82 190.51 72.55Q193.49 69.19 195.6 65.54Q196.08 65.06 196.37 65.06Q196.66 65.06 196.85 65.35Q197.14 65.54 197.04 65.83Q194.35 70.54 190.9 74.38Q187.44 78.22 184.46 80.62Q181.49 83.02 180.14 83.59Q178.13 89.35 174.77 95.88Q171.5 102.31 166.32 108.07Q164.11 110.57 160.85 112.97Q157.58 115.27 153.94 116.81Q150.29 118.34 147.02 118.34ZM146.45 116.81Q148.66 116.81 151.63 114.6Q154.7 112.39 157.97 108.84Q161.33 105.29 164.5 101.16Q167.66 97.03 170.26 93.1Q172.85 89.16 174.38 86.18Q173.04 86.86 170.26 88.58Q167.47 90.22 163.92 92.62Q160.37 94.92 156.72 97.7Q153.17 100.49 150 103.37Q146.93 106.15 145.01 108.74Q143.18 111.34 143.18 113.45Q143.18 114.98 144.05 115.94Q144.91 116.81 146.45 116.81Z" />
	</g>
</svg>